HIERARCHY
ROOT RootJoint
{
    OFFSET   0.000000   0.000000   0.000000
    CHANNELS 6 Xposition Yposition Zposition Xrotation Yrotation Zrotation
    JOINT pelvis_lowerback
    {
        OFFSET   0.000000   0.093605   0.000000
        CHANNELS 3 Xrotation Yrotation Zrotation
        JOINT lowerback_torso
        {
            OFFSET   0.000000   0.100000   0.000000
            CHANNELS 3 Xrotation Yrotation Zrotation
            JOINT torso_head
            {
                OFFSET   0.000000   0.282350   0.000000
                CHANNELS 3 Xrotation Yrotation Zrotation
                End Site
                {
                    OFFSET   0.000000   0.192650   0.000000
                }
            }
            JOINT rTorso_Clavicle
            {
                OFFSET  -0.001000   0.157500   0.000000
                CHANNELS 3 Xrotation Yrotation Zrotation
                JOINT rShoulder
                {
                    OFFSET  -0.117647   0.000000   0.000000
                    CHANNELS 3 Xrotation Yrotation Zrotation
                    JOINT rElbow
                    {
                        OFFSET  -0.245000   0.000000   0.000000
                        CHANNELS 3 Xrotation Yrotation Zrotation
                        JOINT rWrist
                        {
                            OFFSET  -0.240000   0.000000   0.000000
                            CHANNELS 3 Xrotation Yrotation Zrotation
                            End Site
                            {
                                OFFSET  -0.116353  -0.002500   0.000000
                            }
                        }
                    }
                }
            }
            JOINT lTorso_Clavicle
            {
                OFFSET   0.001000   0.157500   0.000000
                CHANNELS 3 Xrotation Yrotation Zrotation
                JOINT lShoulder
                {
                    OFFSET   0.117647   0.000000   0.000000
                    CHANNELS 3 Xrotation Yrotation Zrotation
                    JOINT lElbow
                    {
                        OFFSET   0.245000   0.000000   0.000000
                        CHANNELS 3 Xrotation Yrotation Zrotation
                        JOINT lWrist
                        {
                            OFFSET   0.240000   0.000000   0.000000
                            CHANNELS 3 Xrotation Yrotation Zrotation
                            End Site
                            {
                                OFFSET   0.116353  -0.002500   0.000000
                            }
                        }
                    }
                }
            }
        }
    }
    JOINT rHip
    {
        OFFSET  -0.100000  -0.051395   0.000000
        CHANNELS 3 Xrotation Yrotation Zrotation
        JOINT rKnee
        {
            OFFSET   0.000000  -0.410000   0.000000
            CHANNELS 3 Xrotation Yrotation Zrotation
            JOINT rAnkle
            {
                OFFSET   0.000000  -0.390000   0.000000
                CHANNELS 3 Xrotation Yrotation Zrotation
                JOINT rToeJoint
                {
                    OFFSET   0.000000  -0.050000   0.130000
                    CHANNELS 3 Xrotation Yrotation Zrotation
                    End Site
                    {
                        OFFSET  -0.010000   0.002000   0.060000
                    }
                }
            }
        }
    }
    JOINT lHip
    {
        OFFSET   0.100000  -0.051395   0.000000
        CHANNELS 3 Xrotation Yrotation Zrotation
        JOINT lKnee
        {
            OFFSET   0.000000  -0.410000   0.000000
            CHANNELS 3 Xrotation Yrotation Zrotation
            JOINT lAnkle
            {
                OFFSET   0.000000  -0.390000   0.000000
                CHANNELS 3 Xrotation Yrotation Zrotation
                JOINT lToeJoint
                {
                    OFFSET   0.000000  -0.050000   0.130000
                    CHANNELS 3 Xrotation Yrotation Zrotation
                    End Site
                    {
                        OFFSET   0.010000   0.002000   0.060000
                    }
                }
            }
        }
    }
}
MOTION
Frames: 14
Frame Time:   0.008333
 -1.903884   0.752394   4.104966 114.430083  59.591618 -108.579328  79.408840   4.630532   9.652937  -1.319692   3.886665  -3.138743  -0.285543 -12.324789  -8.789812  -2.990050  40.979051 -24.653350 -31.592106  19.959460 -12.712311   0.000455  14.484502   0.002318   6.943702   0.774537 -30.671419  -4.121579  -3.904185  -3.091723  18.828519   3.004027 -45.756398  -0.003058 -69.997601  -0.002849   3.439043  -9.472662  13.281582 -82.127377  -3.296938 -13.224855  68.830847  -0.000144   0.000853 -15.987278  -6.677783  -1.854322  -0.901220  -0.000090   0.000015 -68.296075   5.399389   1.004909  77.143698  -0.000100   0.000365 -19.593073  -1.767171  -4.341148 -25.453720   0.000065   0.000039
 -1.903681   0.751900   4.105769 114.753690  59.441720 -108.851146  79.377326   4.621629   9.704255  -1.289669   3.816546  -3.138553  -0.260048 -12.339068  -8.802600  -2.917828  41.049061 -24.801815 -31.597773  19.951909 -12.839540   0.000514  14.210687   0.002219   6.938878   0.784322 -30.655000  -4.174995  -3.960947  -3.125170  18.774810   2.938922 -45.725708  -0.002977 -69.878329  -0.002728   3.442314  -9.469957  13.363835 -82.288455  -3.286194 -13.334988  69.010602  -0.000143   0.000833 -16.105185  -6.765180  -1.959565  -0.858367  -0.000049   0.000012 -68.453381   5.336587   0.923988  77.219644  -0.000090   0.000361 -19.490587  -1.870371  -4.368717 -25.599938   0.000071   0.000047
 -1.903470   0.751460   4.106571 115.068343  59.293238 -109.113803  79.352070   4.611507   9.752284  -1.259185   3.745239  -3.142903  -0.234110 -12.353386  -8.814103  -2.854676  41.115201 -24.945137 -31.604749  19.944715 -12.963899   0.000552  13.952422   0.002123   6.919956   0.770939 -30.646679  -4.228526  -4.017703  -3.165252  18.721545   2.873520 -45.701905  -0.002902 -69.768969  -0.002613   3.444885  -9.467480  13.445797 -82.440590  -3.277335 -13.443750  69.176766  -0.000141   0.000801 -16.217098  -6.849283  -2.058441  -0.825478  -0.000024   0.000010 -68.603087   5.285347   0.848580  77.284632  -0.000077   0.000350 -19.381020  -1.971721  -4.393488 -25.749399   0.000078   0.000041
 -1.903253   0.751058   4.107373 115.371666  59.147972 -109.368692  79.331181   4.599828   9.795131  -1.229232   3.675459  -3.150673  -0.208618 -12.366915  -8.824622  -2.797259  41.176401 -25.080930 -31.611602  19.938463 -13.082290   0.000565  13.711347   0.002031   6.899028   0.753492 -30.643611  -4.279596  -4.072807  -3.207823  18.671102   2.809781 -45.682851  -0.002824 -69.667626  -0.002502   3.447228  -9.465297  13.518193 -82.583720  -3.271993 -13.547393  69.331815  -0.000138   0.000765 -16.324166  -6.932087  -2.151703  -0.800428  -0.000009   0.000008 -68.744754   5.240184   0.779590  77.341417  -0.000063   0.000335 -19.274642  -2.066263  -4.416297 -25.889731   0.000086   0.000023
 -1.903033   0.750686   4.108173 115.664122  59.006804 -109.616504  79.313444   4.586907   9.832681  -1.200131   3.607984  -3.161140  -0.184202 -12.379670  -8.834507  -2.744144  41.233136 -25.208627 -31.618133  19.932867 -13.193707   0.000556  13.486473   0.001940   6.878841   0.736538 -30.642900  -4.327730  -4.125531  -3.250868  18.623823   2.748596 -45.667149  -0.002734 -69.573367  -0.002386   3.449441  -9.463367  13.581341 -82.718228  -3.270089 -13.645752  69.477455  -0.000134   0.000728 -16.427067  -7.013686  -2.239896  -0.781511   0.000000   0.000007 -68.878434   5.199069   0.716336  77.391543  -0.000049   0.000316 -19.173508  -2.153849  -4.437340 -26.019094   0.000092  -0.000001
 -1.902814   0.750340   4.108970 115.946081  58.870297 -109.857252  79.298084   4.573259   9.865206  -1.172076   3.543293  -3.173799  -0.161100 -12.391677  -8.843941  -2.694574  41.285854 -25.328298 -31.624296  19.927771 -13.297974   0.000533  13.276711   0.001846   6.859858   0.720879 -30.642983  -4.372940  -4.175607  -3.293339  18.579619   2.690324 -45.653942  -0.002630 -69.485575  -0.002262   3.451549  -9.461638  13.636981 -82.844481  -3.271183 -13.739073  69.614692  -0.000130   0.000689 -16.526102  -7.093846  -2.323405  -0.767369   0.000005   0.000005 -69.004285   5.161245   0.658195  77.435988  -0.000038   0.000296 -19.077843  -2.234914  -4.456777 -26.137809   0.000098  -0.000025
 -1.902597   0.750017   4.109761 116.217732  58.738835 -110.090710  79.284523   4.559368   9.893109  -1.145189   3.481719  -3.188247  -0.139383 -12.402961  -8.853011  -2.648058  41.334963 -25.440304 -31.630076  19.923136 -13.395262   0.000500  13.081052   0.001750   6.842117   0.706613 -30.643123  -4.415332  -4.222930  -3.334667  18.538333   2.635103 -45.642685  -0.002511 -69.403752  -0.002131   3.453564  -9.460071  13.686623 -82.962834  -3.274792 -13.827621  69.744168  -0.000126   0.000651 -16.621375  -7.172290  -2.402515  -0.756921   0.000007   0.000004 -69.122519   5.126350   0.604638  77.475437  -0.000028   0.000275 -18.987447  -2.309936  -4.474738 -26.246599   0.000102  -0.000048
 -1.902371   0.749696   4.110554 116.464203  58.632578 -110.320321  79.264722   4.518349   9.911880  -1.106454   3.427944  -3.219835  -0.102405 -12.405466  -8.866379  -2.607780  41.439960 -25.524627 -31.657978  19.933760 -13.453149   0.000460  12.797827   0.001679   6.823954   0.728521 -30.621711  -4.449554  -4.276228  -3.336455  18.511139   2.547808 -45.644118  -0.002641 -69.295043  -0.002253   3.446445  -9.461001  13.720789 -83.061725  -3.324550 -13.913610  69.866538  -0.000145   0.000583 -16.718370  -7.216512  -2.483916  -0.747627   0.000008   0.000003 -69.212697   5.070355   0.573671  77.510290  -0.000024   0.000253 -18.934442  -2.376727  -4.549075 -26.304993   0.000073  -0.000063
 -1.902148   0.749392   4.111343 116.700796  58.534710 -110.546931  79.242084   4.469964   9.920993  -1.070465   3.372653  -3.254523  -0.069931 -12.407971  -8.880930  -2.561656  41.543361 -25.597915 -31.684321  19.942124 -13.496397   0.000395  12.530243   0.001639   6.791308   0.725704 -30.580175  -4.484665  -4.333284  -3.334091  18.482856   2.462420 -45.641867  -0.002696 -69.193886  -0.002312   3.440213  -9.462073  13.737957 -83.150587  -3.384389 -13.995618  69.981993  -0.000161   0.000521 -16.813880  -7.254666  -2.558974  -0.739410   0.000007   0.000003 -69.293435   5.011338   0.549594  77.542382  -0.000020   0.000232 -18.891731  -2.439771  -4.619546 -26.348846   0.000054  -0.000069
 -1.901932   0.749109   4.112122 116.932000  58.442223 -110.772208  79.218059   4.418460   9.924428  -1.038913   3.316225  -3.290345  -0.041273 -12.410371  -8.895871  -2.514642  41.640936 -25.662890 -31.708765  19.948904 -13.531459   0.000337  12.280034   0.001607   6.757189   0.718155 -30.528230  -4.520999  -4.391444  -3.331290  18.453150   2.379763 -45.638135  -0.002680 -69.100798  -0.002305   3.434381  -9.463151  13.750791 -83.230930  -3.447020 -14.073809  70.090543  -0.000170   0.000467 -16.906261  -7.292710  -2.629366  -0.732723   0.000006   0.000002 -69.367778   4.953375   0.529089  77.571796  -0.000017   0.000212 -18.851973  -2.498044  -4.685085 -26.386793   0.000040  -0.000072
 -1.901726   0.748844   4.112881 117.156988  58.355245 -110.993678  79.193403   4.365312   9.923558  -1.011541   3.259457  -3.327032  -0.015467 -12.412649  -8.910763  -2.468973  41.732178 -25.721680 -31.731560  19.954551 -13.561612   0.000295  12.046339   0.001572   6.724160   0.710221 -30.472239  -4.557669  -4.449361  -3.329253  18.422896   2.300199 -45.634093  -0.002613 -69.014981  -0.002248   3.428808  -9.464219  13.761580 -83.303375  -3.509575 -14.148121  70.192528  -0.000173   0.000421 -16.994735  -7.331035  -2.695675  -0.727442   0.000006   0.000002 -69.436887   4.896413   0.510707  77.599620  -0.000014   0.000195 -18.811498  -2.553522  -4.745248 -26.424981   0.000030  -0.000074
 -1.901533   0.748597   4.113615 117.374871  58.273868 -111.209837  79.168213   4.311609   9.919349  -0.988065   3.203174  -3.364363   0.008060 -12.414812  -8.925349  -2.425636  41.817194 -25.775664 -31.752882  19.959420 -13.588635   0.000271  11.828173   0.001529   6.692649   0.702738 -30.415732  -4.593861  -4.506059  -3.328398  18.392880   2.224043 -45.630321  -0.002508 -68.935646  -0.002154   3.423456  -9.465283  13.770387 -83.368578  -3.571015 -14.218594  70.288303  -0.000171   0.000381 -17.078958  -7.369339  -2.758137  -0.723328   0.000005   0.000001 -69.500955   4.841140   0.494059  77.626098  -0.000011   0.000179 -18.770656  -2.606079  -4.800616 -26.463189   0.000024  -0.000076
 -1.901354   0.748365   4.114321 117.585086  58.198141 -111.419718  79.142412   4.258132   9.912489  -0.968256   3.148042  -3.402085   0.029649 -12.416867  -8.939479  -2.385048  41.896265 -25.825737 -31.772857  19.963748 -13.613537   0.000262  11.624561   0.001474   6.662685   0.695871 -30.360584  -4.629007  -4.560868  -3.328766  18.363649   2.151506 -45.627071  -0.002377 -68.862128  -0.002035   3.418308  -9.466345  13.777157 -83.427130  -3.630782 -14.285366  70.378230  -0.000166   0.000345 -17.158750  -7.407235  -2.816919  -0.720163   0.000004   0.000001 -69.560169   4.787845   0.478867  77.651437  -0.000008   0.000164 -18.729914  -2.655851  -4.851644 -26.500994   0.000019  -0.000077
 -1.901147   0.748259   4.115033 117.765522  58.130601 -111.645630  79.061904   4.220045   9.911127  -0.881590   3.080405  -3.437899   0.004105 -12.408696  -8.968806  -2.383182  42.014494 -25.832915 -31.831655  20.000122 -13.595022   0.000211  11.424664   0.001293   6.626707   0.698515 -30.313686  -4.651298  -4.659244  -3.354915  18.280787   2.133502 -45.609240  -0.002729 -68.686348  -0.002342   3.404473  -9.469703  13.773225 -83.453966  -3.742346 -14.332539  70.427635  -0.000150   0.000296 -17.235566  -7.437944  -2.841977  -0.709061   0.000000   0.000001 -69.614412   4.693255   0.501636  77.664799  -0.000007   0.000143 -18.668394  -2.727147  -4.953789 -26.560643  -0.000009  -0.000089
